<?xml version="1.0" encoding="utf-8" standalone="no"?>
<!DOCTYPE svg PUBLIC "-//W3C//DTD SVG 1.1//EN"
  "http://www.w3.org/Graphics/SVG/1.1/DTD/svg11.dtd">
<!-- Created with matplotlib (https://matplotlib.org/) -->
<svg height="360pt" version="1.1" viewBox="0 0 504 360" width="504pt" xmlns="http://www.w3.org/2000/svg" xmlns:xlink="http://www.w3.org/1999/xlink">
 <defs>
  <style type="text/css">
*{stroke-linecap:butt;stroke-linejoin:round;}
  </style>
 </defs>
 <g id="figure_1">
  <g id="patch_1">
   <path d="M 0 360 
L 504 360 
L 504 0 
L 0 0 
z
" style="fill:none;"/>
  </g>
  <g id="axes_1">
   <g id="patch_2">
    <path d="M 63 320.4 
L 453.6 320.4 
L 453.6 43.2 
L 63 43.2 
z
" style="fill:none;"/>
   </g>
   <g id="matplotlib.axis_1">
    <g id="xtick_1">
     <g id="line2d_1">
      <defs>
       <path d="M 0 0 
L 0 3.5 
" id="m3b61ad72e1" style="stroke:#000000;stroke-width:0.8;"/>
      </defs>
      <g>
       <use style="stroke:#000000;stroke-width:0.8;" x="63" xlink:href="#m3b61ad72e1" y="320.4"/>
      </g>
     </g>
     <g id="text_1">
      <!-- $-\pi$ -->
      <defs>
       <path d="M 65.90625 23 
C 67.59375 23 69.40625 23 69.40625 25 
C 69.40625 27 67.59375 27 65.90625 27 
L 11.796875 27 
C 10.09375 27 8.296875 27 8.296875 25 
C 8.296875 23 10.09375 23 11.796875 23 
z
" id="CMSY10-0"/>
       <path d="M 25.90625 37.59375 
L 37.203125 37.59375 
C 34.5 26.421875 32.796875 19.140625 32.796875 11.171875 
C 32.796875 9.765625 32.796875 -1 36.90625 -1 
C 39 -1 40.796875 0.890625 40.796875 2.59375 
C 40.796875 3.09375 40.796875 3.28125 40.09375 4.78125 
C 37.40625 11.65625 37.40625 20.234375 37.40625 20.9375 
C 37.40625 21.53125 37.40625 28.625 39.5 37.59375 
L 50.703125 37.59375 
C 52 37.59375 55.296875 37.59375 55.296875 40.796875 
C 55.296875 43 53.40625 43 51.59375 43 
L 18.703125 43 
C 16.40625 43 13 43 8.40625 38.09375 
C 5.796875 35.203125 2.59375 29.921875 2.59375 29.3125 
C 2.59375 28.71875 3.09375 28.515625 3.703125 28.515625 
C 4.40625 28.515625 4.5 28.8125 5 29.421875 
C 10.203125 37.59375 15.40625 37.59375 17.90625 37.59375 
L 23.59375 37.59375 
C 21.40625 30.109375 18.90625 21.4375 10.703125 3.984375 
C 9.90625 2.390625 9.90625 2.1875 9.90625 1.59375 
C 9.90625 -0.5 11.703125 -1 12.59375 -1 
C 15.5 -1 16.296875 1.59375 17.5 5.78125 
C 19.09375 10.859375 19.09375 11.0625 20.09375 15.0625 
z
" id="CMMI12-25"/>
      </defs>
      <g transform="translate(56.28614 334.318498)scale(0.1 -0.1)">
       <use transform="scale(0.996264)" xlink:href="#CMSY10-0"/>
       <use transform="translate(77.487468 0)scale(0.996264)" xlink:href="#CMMI12-25"/>
      </g>
     </g>
    </g>
    <g id="xtick_2">
     <g id="line2d_2">
      <g>
       <use style="stroke:#000000;stroke-width:0.8;" x="156.744" xlink:href="#m3b61ad72e1" y="320.4"/>
      </g>
     </g>
     <g id="text_2">
      <!-- $-\pi/2$ -->
      <defs>
       <path d="M 42.90625 71.296875 
C 42.90625 71.390625 43.5 72.890625 43.5 73.09375 
C 43.5 74.296875 42.5 75 41.703125 75 
C 41.203125 75 40.296875 75 39.5 72.796875 
L 6 -21.3125 
C 6 -21.40625 5.40625 -22.90625 5.40625 -23.109375 
C 5.40625 -24.3125 6.40625 -25 7.203125 -25 
C 7.796875 -25 8.703125 -24.90625 9.40625 -22.8125 
z
" id="CMMI12-61"/>
       <path d="M 41.703125 15.46875 
L 39.90625 15.46875 
C 38.90625 8.390625 38.09375 7.1875 37.703125 6.59375 
C 37.203125 5.796875 30 5.796875 28.59375 5.796875 
L 9.40625 5.796875 
C 13 9.6875 20 16.765625 28.5 24.9375 
C 34.59375 30.71875 41.703125 37.5 41.703125 47.390625 
C 41.703125 59.1875 32.296875 66 21.796875 66 
C 10.796875 66 4.09375 56.296875 4.09375 47.296875 
C 4.09375 43.390625 7 42.890625 8.203125 42.890625 
C 9.203125 42.890625 12.203125 43.484375 12.203125 46.984375 
C 12.203125 50.09375 9.59375 51 8.203125 51 
C 7.59375 51 7 50.890625 6.59375 50.6875 
C 8.5 59.1875 14.296875 63.390625 20.40625 63.390625 
C 29.09375 63.390625 34.796875 56.5 34.796875 47.390625 
C 34.796875 38.703125 29.703125 31.21875 24 24.734375 
L 4.09375 2.296875 
L 4.09375 0 
L 39.296875 0 
z
" id="CMR17-50"/>
      </defs>
      <g transform="translate(144.870085 334.87198)scale(0.1 -0.1)">
       <use transform="scale(0.996264)" xlink:href="#CMSY10-0"/>
       <use transform="translate(77.487468 0)scale(0.996264)" xlink:href="#CMMI12-25"/>
       <use transform="translate(136.398068 0)scale(0.996264)" xlink:href="#CMMI12-61"/>
       <use transform="translate(185.172987 0)scale(0.996264)" xlink:href="#CMR17-50"/>
      </g>
     </g>
    </g>
    <g id="xtick_3">
     <g id="line2d_3">
      <g>
       <use style="stroke:#000000;stroke-width:0.8;" x="254.394" xlink:href="#m3b61ad72e1" y="320.4"/>
      </g>
     </g>
     <g id="text_3">
      <!-- 0 -->
      <defs>
       <path d="M 42 31.84375 
C 42 37.96875 41.90625 48.421875 37.703125 56.453125 
C 34 63.484375 28.09375 66 22.90625 66 
C 18.09375 66 12 63.78125 8.203125 56.5625 
C 4.203125 49.015625 3.796875 39.671875 3.796875 31.84375 
C 3.796875 26.109375 3.90625 17.375 7 9.734375 
C 11.296875 -0.609375 19 -2 22.90625 -2 
C 27.5 -2 34.5 -0.109375 38.59375 9.4375 
C 41.59375 16.375 42 24.5 42 31.84375 
z
M 22.90625 -0.40625 
C 16.5 -0.40625 12.703125 5.125 11.296875 12.75 
C 10.203125 18.6875 10.203125 27.328125 10.203125 32.953125 
C 10.203125 40.6875 10.203125 47.109375 11.5 53.234375 
C 13.40625 61.78125 19 64.390625 22.90625 64.390625 
C 27 64.390625 32.296875 61.671875 34.203125 53.4375 
C 35.5 47.71875 35.59375 40.984375 35.59375 32.953125 
C 35.59375 26.421875 35.59375 18.375 34.40625 12.453125 
C 32.296875 1.5 26.40625 -0.40625 22.90625 -0.40625 
z
" id="CMR17-48"/>
      </defs>
      <g transform="translate(251.903332 334.318498)scale(0.1 -0.1)">
       <use transform="scale(0.996264)" xlink:href="#CMR17-48"/>
      </g>
     </g>
    </g>
    <g id="xtick_4">
     <g id="line2d_4">
      <g>
       <use style="stroke:#000000;stroke-width:0.8;" x="352.044" xlink:href="#m3b61ad72e1" y="320.4"/>
      </g>
     </g>
     <g id="text_4">
      <!-- $\pi/2$ -->
      <g transform="translate(344.044457 334.87198)scale(0.1 -0.1)">
       <use transform="scale(0.996264)" xlink:href="#CMMI12-25"/>
       <use transform="translate(58.910601 0)scale(0.996264)" xlink:href="#CMMI12-61"/>
       <use transform="translate(107.68552 0)scale(0.996264)" xlink:href="#CMR17-50"/>
      </g>
     </g>
    </g>
    <g id="xtick_5">
     <g id="line2d_5">
      <g>
       <use style="stroke:#000000;stroke-width:0.8;" x="449.694" xlink:href="#m3b61ad72e1" y="320.4"/>
      </g>
     </g>
     <g id="text_5">
      <!-- $\pi$ -->
      <g transform="translate(446.854512 334.318498)scale(0.1 -0.1)">
       <use transform="scale(0.996264)" xlink:href="#CMMI12-25"/>
      </g>
     </g>
    </g>
    <g id="text_6">
     <!-- Phi ($\phi$) -->
     <defs>
      <path d="M 19.796875 32 
L 35.796875 32 
C 48.703125 32 58.09375 40.359375 58.09375 49.796875 
C 58.09375 59.234375 48.90625 68 35.796875 68 
L 5.203125 68 
L 5.203125 65.390625 
C 12.09375 65.390625 13.203125 65.390625 13.203125 60.921875 
L 13.203125 7.078125 
C 13.203125 2.59375 12.09375 2.59375 5.203125 2.59375 
L 5.203125 0 
C 8.09375 0.1875 13.40625 0.1875 16.5 0.1875 
C 19.59375 0.1875 24.90625 0.1875 27.796875 0 
L 27.796875 2.59375 
C 20.90625 2.59375 19.796875 2.59375 19.796875 7.078125 
z
M 19.59375 34.09375 
L 19.59375 61.515625 
C 19.59375 64.890625 19.796875 65.390625 23.796875 65.390625 
L 33.90625 65.390625 
C 46.796875 65.390625 50.5 58.046875 50.5 49.796875 
C 50.5 40.75 46.09375 34.09375 33.90625 34.09375 
z
" id="CMR17-80"/>
      <path d="M 41.5 30.53125 
C 41.5 35.65625 40.5 44 28.703125 44 
C 20.5 44 16.5 37.375 15.296875 34.046875 
L 15.203125 34.046875 
L 15.203125 69 
L 3.296875 67.890625 
L 3.296875 65.296875 
C 9.203125 65.296875 10.09375 64.703125 10.09375 60.046875 
L 10.09375 6.921875 
C 10.09375 3.09375 9.703125 2.59375 3.296875 2.59375 
L 3.296875 0 
C 5.703125 0.1875 10.09375 0.1875 12.703125 0.1875 
C 15.296875 0.1875 19.796875 0.1875 22.203125 0 
L 22.203125 2.59375 
C 15.796875 2.59375 15.40625 3 15.40625 6.921875 
L 15.40625 26.21875 
C 15.40625 35.453125 21 42.390625 28 42.390625 
C 35.40625 42.390625 36.203125 35.765625 36.203125 30.9375 
L 36.203125 6.921875 
C 36.203125 3.09375 35.796875 2.59375 29.40625 2.59375 
L 29.40625 0 
C 31.796875 0.1875 36.203125 0.1875 38.796875 0.1875 
C 41.40625 0.1875 45.90625 0.1875 48.296875 0 
L 48.296875 2.59375 
C 41.90625 2.59375 41.5 3 41.5 6.921875 
z
" id="CMR17-104"/>
      <path d="M 15.5 61.890625 
C 15.5 64.09375 13.703125 66 11.40625 66 
C 9.203125 66 7.296875 64.1875 7.296875 61.890625 
C 7.296875 59.6875 9.09375 57.796875 11.40625 57.796875 
C 13.59375 57.796875 15.5 59.59375 15.5 61.890625 
z
M 3.796875 42.890625 
L 3.796875 40.296875 
C 9.40625 40.296875 10.203125 39.6875 10.203125 34.859375 
L 10.203125 6.921875 
C 10.203125 3.09375 9.796875 2.59375 3.40625 2.59375 
L 3.40625 0 
C 5.796875 0.1875 10.09375 0.1875 12.59375 0.1875 
C 15 0.1875 19.09375 0.1875 21.40625 0 
L 21.40625 2.59375 
C 15.5 2.59375 15.296875 3.203125 15.296875 6.8125 
L 15.296875 44 
z
" id="CMR17-105"/>
      <path d="M 30.59375 -24.40625 
C 30.59375 -24.3125 30.59375 -24.109375 30.296875 -23.8125 
C 25.703125 -19.109375 13.40625 -6.296875 13.40625 24.9375 
C 13.40625 56.171875 25.5 68.875 30.40625 73.890625 
C 30.40625 73.984375 30.59375 74.1875 30.59375 74.484375 
C 30.59375 74.796875 30.296875 75 29.90625 75 
C 28.796875 75 20.296875 67.578125 15.40625 56.5625 
C 10.40625 45.453125 9 34.65625 9 25.046875 
C 9 17.828125 9.703125 5.625 15.703125 -7.296875 
C 20.5 -17.703125 28.703125 -25 29.90625 -25 
C 30.40625 -25 30.59375 -24.8125 30.59375 -24.40625 
z
" id="CMR17-40"/>
      <path d="M 43 68.09375 
C 43 69 42.296875 69 42 69 
C 41.09375 69 41 68.796875 40.59375 67.09375 
L 35.203125 45.6875 
C 34.90625 44.390625 34.796875 44.296875 34.703125 44.1875 
C 34.59375 44 33.90625 43.890625 33.703125 43.890625 
C 17.296875 42.5 4.703125 29.109375 4.703125 16.734375 
C 4.703125 6.046875 13 -0.5 23.40625 -1.109375 
C 22.59375 -4.15625 21.90625 -7.296875 21.09375 -10.34375 
C 19.703125 -15.546875 18.90625 -18.8125 18.90625 -19.203125 
C 18.90625 -19.40625 18.90625 -20 19.90625 -20 
C 20.203125 -20 20.59375 -20 20.796875 -19.609375 
C 21 -19.40625 21.59375 -17.015625 22 -15.75 
L 25.703125 -1.109375 
C 42.796875 -0.203125 55.796875 13.671875 55.796875 26.140625 
C 55.796875 36.140625 48.203125 43.296875 37.09375 44 
z
M 36.5 42 
C 43.09375 41.59375 49.703125 37.9375 49.703125 28.21875 
C 49.703125 17.03125 41.796875 2.1875 26.203125 1 
z
M 23.90625 0.890625 
C 19 1.1875 10.796875 3.765625 10.796875 14.65625 
C 10.796875 27.140625 19.90625 41 34.296875 41.890625 
z
" id="CMMI12-30"/>
      <path d="M 26.296875 24.9375 
C 26.296875 32.140625 25.59375 44.359375 19.59375 57.265625 
C 14.796875 67.6875 6.59375 75 5.40625 75 
C 5.09375 75 4.703125 74.890625 4.703125 74.390625 
C 4.703125 74.1875 4.796875 74.09375 4.90625 73.890625 
C 9.703125 68.875 21.90625 56.171875 21.90625 25.046875 
C 21.90625 -6.1875 9.796875 -18.90625 4.90625 -23.90625 
C 4.796875 -24.109375 4.703125 -24.203125 4.703125 -24.40625 
C 4.703125 -24.90625 5.09375 -25 5.40625 -25 
C 6.5 -25 15 -17.609375 19.90625 -6.59375 
C 24.90625 4.515625 26.296875 15.328125 26.296875 24.9375 
z
" id="CMR17-41"/>
     </defs>
     <g transform="translate(237.903959 351.076214)scale(0.13 -0.13)">
      <use transform="scale(0.996264)" xlink:href="#CMR17-80"/>
      <use transform="translate(62.586301 0)scale(0.996264)" xlink:href="#CMR17-104"/>
      <use transform="translate(113.48167 0)scale(0.996264)" xlink:href="#CMR17-105"/>
      <use transform="translate(168.428695 0)scale(0.996264)" xlink:href="#CMR17-40"/>
      <use transform="translate(203.709463 0)scale(0.996264)" xlink:href="#CMMI12-30"/>
      <use transform="translate(261.443643 0)scale(0.996264)" xlink:href="#CMR17-41"/>
     </g>
    </g>
   </g>
   <g id="matplotlib.axis_2">
    <g id="ytick_1">
     <g id="line2d_6">
      <defs>
       <path d="M 0 0 
L -3.5 0 
" id="m1155204dc8" style="stroke:#000000;stroke-width:0.8;"/>
      </defs>
      <g>
       <use style="stroke:#000000;stroke-width:0.8;" x="63" xlink:href="#m1155204dc8" y="320.4"/>
      </g>
     </g>
     <g id="text_7">
      <!-- $\pi$ -->
      <g transform="translate(50.321025 323.859249)scale(0.1 -0.1)">
       <use transform="scale(0.996264)" xlink:href="#CMMI12-25"/>
      </g>
     </g>
    </g>
    <g id="ytick_2">
     <g id="line2d_7">
      <g>
       <use style="stroke:#000000;stroke-width:0.8;" x="63" xlink:href="#m1155204dc8" y="253.872"/>
      </g>
     </g>
     <g id="text_8">
      <!-- $\pi/2$ -->
      <g transform="translate(40.000915 257.60799)scale(0.1 -0.1)">
       <use transform="scale(0.996264)" xlink:href="#CMMI12-25"/>
       <use transform="translate(58.910601 0)scale(0.996264)" xlink:href="#CMMI12-61"/>
       <use transform="translate(107.68552 0)scale(0.996264)" xlink:href="#CMR17-50"/>
      </g>
     </g>
    </g>
    <g id="ytick_3">
     <g id="line2d_8">
      <g>
       <use style="stroke:#000000;stroke-width:0.8;" x="63" xlink:href="#m1155204dc8" y="184.572"/>
      </g>
     </g>
     <g id="text_9">
      <!-- 0 -->
      <g transform="translate(51.018665 188.031249)scale(0.1 -0.1)">
       <use transform="scale(0.996264)" xlink:href="#CMR17-48"/>
      </g>
     </g>
    </g>
    <g id="ytick_4">
     <g id="line2d_9">
      <g>
       <use style="stroke:#000000;stroke-width:0.8;" x="63" xlink:href="#m1155204dc8" y="115.272"/>
      </g>
     </g>
     <g id="text_10">
      <!-- $-\pi/2$ -->
      <g transform="translate(32.252171 119.00799)scale(0.1 -0.1)">
       <use transform="scale(0.996264)" xlink:href="#CMSY10-0"/>
       <use transform="translate(77.487468 0)scale(0.996264)" xlink:href="#CMMI12-25"/>
       <use transform="translate(136.398068 0)scale(0.996264)" xlink:href="#CMMI12-61"/>
       <use transform="translate(185.172987 0)scale(0.996264)" xlink:href="#CMR17-50"/>
      </g>
     </g>
    </g>
    <g id="ytick_5">
     <g id="line2d_10">
      <g>
       <use style="stroke:#000000;stroke-width:0.8;" x="63" xlink:href="#m1155204dc8" y="45.972"/>
      </g>
     </g>
     <g id="text_11">
      <!-- $-\pi$ -->
      <g transform="translate(42.572281 49.431249)scale(0.1 -0.1)">
       <use transform="scale(0.996264)" xlink:href="#CMSY10-0"/>
       <use transform="translate(77.487468 0)scale(0.996264)" xlink:href="#CMMI12-25"/>
      </g>
     </g>
    </g>
    <g id="text_12">
     <!-- Psi ($\psi$) -->
     <defs>
      <path d="M 30.90625 42 
C 30.90625 43.796875 30.796875 43.890625 30.203125 43.890625 
C 29.796875 43.890625 29.703125 43.796875 28.5 42.296875 
C 28.203125 41.890625 27.296875 40.890625 27 40.5 
C 23.796875 43.890625 19.296875 44 17.59375 44 
C 6.5 44 2.5 38.1875 2.5 32.390625 
C 2.5 23.390625 12.703125 21.296875 15.59375 20.6875 
C 21.90625 19.390625 24.09375 19 26.203125 17.1875 
C 27.5 16 29.703125 13.796875 29.703125 10.1875 
C 29.703125 6 27.296875 0.59375 18.09375 0.59375 
C 9.40625 0.59375 6.296875 7.1875 4.5 16 
C 4.203125 17.390625 4.203125 17.5 3.40625 17.5 
C 2.59375 17.5 2.5 17.390625 2.5 15.390625 
L 2.5 1 
C 2.5 -0.8125 2.59375 -0.90625 3.203125 -0.90625 
C 3.703125 -0.90625 3.796875 -0.8125 4.296875 0 
C 4.90625 0.890625 6.40625 3.296875 7 4.296875 
C 9 1.59375 12.5 -1 18.09375 -1 
C 28 -1 33.296875 4.390625 33.296875 12.1875 
C 33.296875 17.296875 30.59375 20 29.296875 21.1875 
C 26.296875 24.296875 22.796875 25 18.59375 25.796875 
C 13.09375 27 6.09375 28.390625 6.09375 34.5 
C 6.09375 37.09375 7.5 42.59375 17.59375 42.59375 
C 28.296875 42.59375 28.90625 32.59375 29.09375 29.390625 
C 29.203125 28.890625 29.703125 28.796875 30 28.796875 
C 30.90625 28.796875 30.90625 29.09375 30.90625 30.796875 
z
" id="CMR17-115"/>
      <path d="M 47 66.59375 
C 47 66.6875 47.40625 67.984375 47.40625 68.09375 
C 47.40625 69 46.59375 69 46.296875 69 
C 45.40625 69 45.296875 68.484375 44.90625 66.984375 
L 28.40625 1.1875 
C 20.09375 2.1875 17 6.375 17 12.359375 
C 17 14.5625 17 16.859375 21.703125 29.21875 
C 23 32.8125 23.5 34.109375 23.5 35.90625 
C 23.5 40.40625 20.296875 44 15.59375 44 
C 6.40625 44 2.703125 29.53125 2.703125 28.734375 
C 2.703125 28.328125 3.09375 27.828125 3.796875 27.828125 
C 4.703125 27.828125 4.796875 28.234375 5.203125 29.625 
C 7.59375 38.296875 11.59375 41.984375 15.296875 41.984375 
C 16.203125 41.984375 17.90625 41.890625 17.90625 38.703125 
C 17.90625 38.296875 17.90625 36.109375 16.203125 31.71875 
C 10.796875 17.546875 10.796875 15.359375 10.796875 13.0625 
C 10.796875 3.484375 18.796875 -0.203125 27.796875 -0.90625 
C 27 -3.9375 26.296875 -7.0625 25.5 -10.09375 
C 23.90625 -15.953125 23.203125 -18.703125 23.203125 -19.109375 
C 23.203125 -20 24 -20 24.296875 -20 
C 24.5 -20 24.90625 -20 25.09375 -19.609375 
C 25.5 -19.203125 29.59375 -2.765625 30 -1 
C 33.703125 -1 41.59375 -1 50.59375 8.28125 
C 53.90625 11.859375 56.90625 16.453125 58.59375 20.75 
C 59.59375 23.34375 62 32.21875 62 37.3125 
C 62 43.296875 59 44 58 44 
C 55.59375 44 53.40625 41.59375 53.40625 39.59375 
C 53.40625 38.40625 54.09375 37.703125 54.5 37.3125 
C 55.40625 36.40625 58.09375 33.71875 58.09375 28.53125 
C 58.09375 24.9375 56.09375 17.546875 49.703125 10.375 
C 41.296875 1 33.59375 1 30.59375 1 
z
" id="CMMI12-32"/>
     </defs>
     <g transform="translate(25.014313 201.77632)rotate(-90)scale(0.13 -0.13)">
      <use transform="scale(0.996264)" xlink:href="#CMR17-80"/>
      <use transform="translate(62.586301 0)scale(0.996264)" xlink:href="#CMR17-115"/>
      <use transform="translate(98.387638 0)scale(0.996264)" xlink:href="#CMR17-105"/>
      <use transform="translate(153.334663 0)scale(0.996264)" xlink:href="#CMR17-40"/>
      <use transform="translate(188.615431 0)scale(0.996264)" xlink:href="#CMMI12-32"/>
      <use transform="translate(255.60891 0)scale(0.996264)" xlink:href="#CMR17-41"/>
     </g>
    </g>
   </g>
   <g id="line2d_11">
    <path clip-path="url(#pf9bbdac517)" d="M 242.721677 181.55336 
L 242.970341 179.82704 
L 243.467668 178.426814 
L 244.151493 177.186636 
L 245.083982 175.963798 
L 246.265134 174.797688 
L 247.632785 173.758943 
L 249.249099 172.814328 
L 251.05191 172.02194 
L 253.04122 171.39667 
L 255.154861 170.971563 
L 257.330668 170.763279 
L 259.506476 170.775181 
L 261.682283 171.007968 
L 263.795924 171.459087 
L 265.785234 172.112866 
L 267.588045 172.937441 
L 269.204359 173.920842 
L 270.572009 175.007655 
L 271.690996 176.167259 
L 272.561319 177.363766 
L 273.245144 178.685336 
L 273.680305 180.034514 
L 273.866803 181.310461 
L 273.816157 182.812081 
L 273.505328 184.205463 
L 272.945834 185.558236 
L 272.199843 186.777247 
L 271.205188 187.975192 
L 269.96187 189.112765 
L 268.532054 190.12128 
L 266.853574 191.028674 
L 264.988596 191.778091 
L 262.999287 192.338443 
L 260.885646 192.703474 
L 258.709838 192.854498 
L 256.534031 192.786372 
L 254.358224 192.495084 
L 252.306749 191.999741 
L 250.379605 191.310316 
L 248.638959 190.458845 
L 247.084811 189.456289 
L 245.779327 188.360465 
L 244.722506 187.204435 
L 243.852183 185.923503 
L 243.230524 184.599725 
L 242.857529 183.270218 
L 242.733197 182.289539 
L 242.721677 181.55336 
L 242.721677 181.55336 
" style="fill:none;stroke:#65ca44;stroke-dasharray:3.7,1.6;stroke-dashoffset:0;"/>
   </g>
   <g id="line2d_12">
    <path clip-path="url(#pf9bbdac517)" d="M 226.931533 180.597434 
L 227.242363 178.510893 
L 227.801856 176.556816 
L 228.547847 174.776914 
L 229.542502 172.984212 
L 230.78582 171.215028 
L 232.277802 169.492236 
L 234.018448 167.834725 
L 235.945592 166.305743 
L 238.121399 164.864173 
L 240.483704 163.564698 
L 243.032507 162.414612 
L 245.767807 161.426337 
L 248.627439 160.631623 
L 251.549238 160.047468 
L 254.595368 159.666936 
L 257.641498 159.509744 
L 260.687628 159.571929 
L 263.733758 159.855044 
L 266.717722 160.353605 
L 269.639521 161.066787 
L 272.436987 161.977331 
L 275.110122 163.081985 
L 277.596759 164.34991 
L 279.896898 165.773537 
L 281.948373 167.30174 
L 283.751185 168.913487 
L 285.305333 170.588002 
L 286.610817 172.302628 
L 287.729804 174.143892 
L 288.537961 175.870619 
L 289.15962 177.707552 
L 289.532615 179.443752 
L 289.656947 180.460263 
L 289.606301 183.623952 
L 289.233305 185.613819 
L 288.611646 187.543862 
L 287.803489 189.316613 
L 286.746669 191.096325 
L 285.441184 192.849063 
L 283.887036 194.552222 
L 282.084225 196.186628 
L 280.094915 197.690673 
L 277.856942 199.102163 
L 275.432471 200.367615 
L 272.821502 201.478646 
L 270.086202 202.403383 
L 267.22657 203.138669 
L 264.242605 203.675704 
L 261.196475 203.99627 
L 258.150345 204.095105 
L 255.104215 203.974682 
L 252.058085 203.631982 
L 249.074121 203.072123 
L 246.214488 202.31317 
L 243.479188 201.363205 
L 240.868219 200.224412 
L 238.443748 198.928093 
L 236.205775 197.480995 
L 234.216466 195.93549 
L 232.47582 194.312793 
L 230.983838 192.634513 
L 229.678353 190.829513 
L 228.683699 189.097286 
L 227.875542 187.246817 
L 227.316048 185.409508 
L 227.005219 183.717017 
L 226.943053 183.139737 
L 226.931533 180.597434 
L 226.931533 180.597434 
" style="fill:none;stroke:#84d432;stroke-dasharray:3.7,1.6;stroke-dashoffset:0;"/>
   </g>
   <g id="line2d_13">
    <path clip-path="url(#pf9bbdac517)" d="M 193.237604 180.372041 
L 193.548434 177.454895 
L 194.045761 175.034409 
L 194.791752 172.527003 
L 195.786407 169.994741 
L 197.029725 167.458982 
L 198.521707 164.930989 
L 200.262353 162.419094 
L 202.313828 159.858446 
L 204.613968 157.347233 
L 207.224936 154.834011 
L 210.084569 152.395767 
L 213.192865 150.041107 
L 216.549824 147.782313 
L 220.093282 145.669954 
L 223.761071 143.740958 
L 227.553192 141.994307 
L 231.469645 140.433822 
L 235.448264 139.086341 
L 239.489049 137.951774 
L 243.592 137.032835 
L 247.694951 136.343117 
L 251.797901 135.878904 
L 255.900852 135.637942 
L 260.003803 135.619134 
L 264.106754 135.822399 
L 268.209704 136.248653 
L 272.312655 136.899937 
L 276.35344 137.764633 
L 280.394225 138.85597 
L 284.372844 140.159189 
L 288.289297 141.673726 
L 292.143584 143.402498 
L 295.873539 145.319084 
L 299.479163 147.424084 
L 302.836122 149.637451 
L 306.006584 151.990876 
L 308.928383 154.433481 
L 311.601517 156.956926 
L 313.963822 159.486326 
L 316.077463 162.073559 
L 317.880275 164.625086 
L 319.434423 167.209607 
L 320.677742 169.690843 
L 321.672396 172.141045 
L 322.418387 174.512471 
L 322.977881 177.017885 
L 323.28871 179.343658 
L 323.350876 180.16793 
L 323.30023 184.125771 
L 322.927235 186.860567 
L 322.367741 189.272702 
L 321.559584 191.767907 
L 320.502764 194.289361 
L 319.197279 196.815303 
L 317.643131 199.333716 
L 315.84032 201.835616 
L 313.726678 204.382887 
L 311.364373 206.880062 
L 308.691239 209.37602 
L 305.76944 211.795088 
L 302.598978 214.127746 
L 299.242019 216.322605 
L 295.698561 218.376526 
L 291.968606 220.281358 
L 288.114319 221.999025 
L 284.197866 223.503025 
L 280.219247 224.796073 
L 276.178462 225.877462 
L 272.075511 226.743887 
L 267.972561 227.382086 
L 263.86961 227.795407 
L 259.766659 227.985822 
L 255.663708 227.954186 
L 251.560757 227.70036 
L 247.457807 227.223187 
L 243.354856 226.520338 
L 239.314071 225.603863 
L 235.273286 224.459271 
L 231.294667 223.10151 
L 227.378214 221.530332 
L 223.586093 219.772546 
L 219.918304 217.831718 
L 216.374846 215.706473 
L 213.017887 213.433504 
L 209.909591 211.063115 
L 207.049958 208.606928 
L 204.43899 206.0726 
L 202.13885 203.536466 
L 200.087375 200.944637 
L 198.346729 198.393662 
L 196.854747 195.812971 
L 195.673595 193.346641 
L 194.741106 190.92486 
L 193.995115 188.360296 
L 193.497787 185.817163 
L 193.249124 183.43207 
L 193.237604 180.372041 
L 193.237604 180.372041 
" style="fill:none;stroke:#abdb20;stroke-dasharray:3.7,1.6;stroke-dashoffset:0;"/>
   </g>
   <g id="line2d_14">
    <path clip-path="url(#pf9bbdac517)" d="M 152.891921 180.367158 
L 153.140585 177.614341 
L 153.637912 174.833139 
L 154.383904 172.039316 
L 155.378558 169.231635 
L 156.621877 166.407531 
L 158.176025 163.455004 
L 159.978836 160.509232 
L 162.154644 157.389957 
L 164.64128 154.217156 
L 167.500913 150.929703 
L 170.795707 147.489039 
L 174.463496 143.985969 
L 178.504281 140.435416 
L 182.918061 136.853842 
L 187.642671 133.305915 
L 192.615945 129.847681 
L 197.775716 126.529453 
L 202.997654 123.432366 
L 208.281757 120.556271 
L 213.503694 117.966276 
L 218.663466 115.655738 
L 223.698905 113.644537 
L 228.610013 111.921864 
L 233.396789 110.477373 
L 238.059233 109.300365 
L 242.659511 108.368196 
L 247.135457 107.685296 
L 251.611404 107.227853 
L 256.025184 107.000584 
L 260.438964 106.997136 
L 264.852745 107.217531 
L 269.266525 107.660264 
L 273.742471 108.333274 
L 278.280584 109.241511 
L 282.880862 110.388613 
L 287.605472 111.797173 
L 292.454414 113.477988 
L 297.427687 115.441457 
L 302.463127 117.669349 
L 307.622898 120.196909 
L 312.844836 123.004259 
L 318.066773 126.0642 
L 323.226544 129.343876 
L 328.261984 132.806128 
L 333.110926 136.410262 
L 337.649038 140.059862 
L 341.814155 143.691816 
L 345.606276 147.291916 
L 348.963236 150.781221 
L 351.9472 154.203219 
L 354.496002 157.458422 
L 356.67181 160.586807 
L 358.536787 163.654056 
L 360.090935 166.642944 
L 361.334254 169.518646 
L 362.266743 172.20363 
L 362.950568 174.781671 
L 363.447895 177.529526 
L 363.696559 180.135988 
L 363.645913 184.232504 
L 363.272917 187.19798 
L 362.651258 190.044966 
L 361.780935 192.874564 
L 360.661948 195.707427 
L 359.294298 198.552163 
L 357.615818 201.516023 
L 355.626509 204.565063 
L 353.32637 207.680958 
L 350.653235 210.924396 
L 347.607105 214.2681 
L 344.125814 217.751558 
L 340.271526 221.288629 
L 336.044244 224.864248 
L 331.443966 228.460826 
L 326.595024 231.970071 
L 321.497418 235.384392 
L 316.275481 238.614273 
L 310.991378 241.620882 
L 305.76944 244.339273 
L 300.609669 246.778373 
L 295.512063 248.943082 
L 290.53879 250.814009 
L 285.689848 252.401621 
L 280.965238 253.716352 
L 276.36496 254.769277 
L 271.826848 255.582128 
L 267.350901 256.159037 
L 262.937121 256.505554 
L 258.523341 256.628895 
L 254.10956 256.528212 
L 249.69578 256.204199 
L 245.219834 255.649803 
L 240.743887 254.871691 
L 236.143609 253.843968 
L 231.481165 252.572843 
L 226.694389 251.034745 
L 221.783281 249.219147 
L 216.810008 247.143027 
L 211.712402 244.773593 
L 206.552631 242.130853 
L 201.330694 239.206791 
L 196.108756 236.027249 
L 191.011151 232.665407 
L 186.037877 229.119353 
L 181.375433 225.526008 
L 177.023818 221.896832 
L 173.0452 218.294789 
L 169.439576 214.733153 
L 166.269114 211.294012 
L 163.471648 207.933492 
L 161.109343 204.7597 
L 159.057867 201.636639 
L 157.379388 198.692487 
L 155.949571 195.733696 
L 154.830585 192.907285 
L 153.960262 190.088597 
L 153.400769 187.608011 
L 153.027773 185.040282 
L 152.903441 183.464012 
L 152.891921 180.367158 
L 152.891921 180.367158 
" style="fill:none;stroke:#d4e115;stroke-dasharray:3.7,1.6;stroke-dashoffset:0;"/>
   </g>
   <g id="line2d_15">
    <path clip-path="url(#pf9bbdac517)" d="M 63 181.8 
L 258.387489 43.262089 
L 453.6 181.8 
L 453.537834 181.844118 
L 258.212511 320.337911 
L 63 181.8 
L 63 181.8 
" style="fill:none;stroke:#fce51e;stroke-dasharray:3.7,1.6;stroke-dashoffset:0;"/>
   </g>
   <g id="patch_3">
    <path d="M 63 320.4 
L 63 43.2 
" style="fill:none;stroke:#000000;stroke-linecap:square;stroke-linejoin:miter;stroke-width:0.8;"/>
   </g>
   <g id="patch_4">
    <path d="M 453.6 320.4 
L 453.6 43.2 
" style="fill:none;stroke:#000000;stroke-linecap:square;stroke-linejoin:miter;stroke-width:0.8;"/>
   </g>
   <g id="patch_5">
    <path d="M 63 320.4 
L 453.6 320.4 
" style="fill:none;stroke:#000000;stroke-linecap:square;stroke-linejoin:miter;stroke-width:0.8;"/>
   </g>
   <g id="patch_6">
    <path d="M 63 43.2 
L 453.6 43.2 
" style="fill:none;stroke:#000000;stroke-linecap:square;stroke-linejoin:miter;stroke-width:0.8;"/>
   </g>
   <g id="text_13">
    <!-- 100{\footnotesize{\%}} -->
    <defs>
     <path d="M 26.59375 63.796875 
C 26.59375 65.890625 26.5 66 25.09375 66 
C 21.203125 61.359375 15.296875 59.890625 9.703125 59.6875 
C 9.40625 59.6875 8.90625 59.6875 8.796875 59.5 
C 8.703125 59.296875 8.703125 59.09375 8.703125 57 
C 11.796875 57 17 57.59375 21 59.984375 
L 21 7.296875 
C 21 3.796875 20.796875 2.59375 12.203125 2.59375 
L 9.203125 2.59375 
L 9.203125 0 
C 14 0.09375 19 0.1875 23.796875 0.1875 
C 28.59375 0.1875 33.59375 0.09375 38.40625 0 
L 38.40625 2.59375 
L 35.40625 2.59375 
C 26.796875 2.59375 26.59375 3.6875 26.59375 7.296875 
z
" id="CMR17-49"/>
     <path d="M 72.703125 70.609375 
C 73.59375 71.796875 73.59375 72.390625 73.59375 72.6875 
C 73.59375 73.984375 72.59375 75 71.296875 75 
C 70.203125 75 69.703125 74.296875 69.09375 73.59375 
C 64.703125 68.046875 58.296875 64 49.09375 64 
C 45.296875 64 37.203125 64.875 29.296875 71.5 
C 27.5 73.09375 25.296875 75 21.40625 75 
C 13.296875 75 5.90625 66.5625 5.90625 54.984375 
C 5.90625 43.09375 13.5 34.796875 21.40625 34.796875 
C 29.296875 34.796875 35.296875 43.796875 35.296875 54.890625 
C 35.296875 59.6875 34.203125 63.390625 33.40625 65.375 
C 41 61.1875 48 61.1875 49.203125 61.1875 
C 51.59375 61.1875 57.296875 61.59375 62.203125 64.28125 
L 62.296875 64.1875 
L 15.90625 -1.296875 
C 14.796875 -2.703125 14.796875 -2.90625 14.796875 -3.515625 
C 14.796875 -4.8125 15.796875 -5.8125 17.09375 -5.8125 
C 18 -5.8125 18.59375 -5.40625 19.40625 -4.3125 
z
M 21.59375 37.59375 
C 19.796875 37.59375 12.703125 38.5 12.703125 54.890625 
C 12.703125 71.296875 19.703125 72.1875 21.59375 72.1875 
C 26.796875 72.1875 32.203125 65.28125 32.203125 54.984375 
C 32.203125 44.390625 26.703125 37.59375 21.59375 37.59375 
z
M 82.5 14.4375 
C 82.5 26.046875 76.296875 34.796875 68.59375 34.796875 
C 60.5 34.796875 53.09375 26.234375 53.09375 14.546875 
C 53.09375 2.546875 60.703125 -5.8125 68.59375 -5.8125 
C 76.5 -5.8125 82.5 3.25 82.5 14.4375 
z
M 68.796875 -3 
C 67 -3 59.90625 -2.09375 59.90625 14.4375 
C 59.90625 31.078125 66.90625 32 68.796875 32 
C 74 32 79.40625 24.9375 79.40625 14.546875 
C 79.40625 3.84375 73.90625 -3 68.796875 -3 
z
" id="CMR8-37"/>
    </defs>
    <g style="fill:#65ca44;" transform="translate(247.299511 184.29066)scale(0.1 -0.1)">
     <use transform="scale(0.996264)" xlink:href="#CMR17-49"/>
     <use transform="translate(45.690477 0)scale(0.996264)" xlink:href="#CMR17-48"/>
     <use transform="translate(91.380954 0)scale(0.996264)" xlink:href="#CMR17-48"/>
     <use transform="translate(137.071431 0)scale(0.079701)" xlink:href="#CMR8-37"/>
    </g>
   </g>
   <g id="text_14">
    <!-- 0.25 -->
    <defs>
     <path d="M 16.59375 4.09375 
C 16.59375 6.59375 14.59375 8.1875 12.5 8.1875 
C 10.5 8.1875 8.40625 6.59375 8.40625 4.09375 
C 8.40625 1.59375 10.40625 0 12.5 0 
C 14.5 0 16.59375 1.59375 16.59375 4.09375 
z
" id="CMR17-46"/>
     <path d="M 11.40625 58.59375 
C 12.40625 58.1875 16.5 56.890625 20.703125 56.890625 
C 30 56.890625 35.09375 61.890625 38 64.6875 
C 38 65.484375 38 66 37.40625 66 
C 37.296875 66 37.09375 66 36.296875 65.59375 
C 32.796875 64.09375 28.703125 63 23.703125 63 
C 20.703125 63 16.203125 63.359375 11.296875 65.484375 
C 10.203125 66 10 66 9.90625 66 
C 9.40625 66 9.296875 65.890625 9.296875 63.90625 
L 9.296875 34.859375 
C 9.296875 33.015625 9.296875 32.5 10.296875 32.5 
C 10.796875 32.5 11 32.703125 11.5 33.421875 
C 14.703125 38.046875 19.09375 40 24.09375 40 
C 27.59375 40 35.09375 37.734375 35.09375 20.203125 
C 35.09375 16.984375 35.09375 11.1875 32.09375 6.59375 
C 29.59375 2.484375 25.703125 0.390625 21.40625 0.390625 
C 14.796875 0.390625 8.09375 4.984375 6.296875 12.6875 
C 6.703125 12.59375 7.5 12.390625 7.90625 12.390625 
C 9.203125 12.390625 11.703125 13.09375 11.703125 16.1875 
C 11.703125 18.890625 9.796875 20 7.90625 20 
C 5.59375 20 4.09375 18.59375 4.09375 15.796875 
C 4.09375 7.09375 11 -2 21.59375 -2 
C 31.90625 -2 41.703125 6.890625 41.703125 19.796875 
C 41.703125 32.09375 33.90625 41.59375 24.203125 41.59375 
C 19.09375 41.59375 14.796875 39.6875 11.40625 36 
z
" id="CMR17-53"/>
    </defs>
    <g style="fill:#65ca44;" transform="translate(269.303846 176.232413)scale(0.09 -0.09)">
     <use transform="scale(0.996264)" xlink:href="#CMR17-48"/>
     <use transform="translate(45.690477 0)scale(0.996264)" xlink:href="#CMR17-46"/>
     <use transform="translate(70.561536 0)scale(0.996264)" xlink:href="#CMR17-50"/>
     <use transform="translate(116.252013 0)scale(0.996264)" xlink:href="#CMR17-53"/>
    </g>
   </g>
   <g id="text_15">
    <!-- 100{\footnotesize{\%}} -->
    <g style="fill:#84d432;" transform="translate(247.299511 168.769527)scale(0.1 -0.1)">
     <use transform="scale(0.996264)" xlink:href="#CMR17-49"/>
     <use transform="translate(45.690477 0)scale(0.996264)" xlink:href="#CMR17-48"/>
     <use transform="translate(91.380954 0)scale(0.996264)" xlink:href="#CMR17-48"/>
     <use transform="translate(137.071431 0)scale(0.079701)" xlink:href="#CMR8-37"/>
    </g>
   </g>
   <g id="text_16">
    <!-- 0.5 -->
    <g style="fill:#84d432;" transform="translate(283.528803 166.88448)scale(0.12 -0.12)">
     <use transform="scale(0.996264)" xlink:href="#CMR17-48"/>
     <use transform="translate(45.690477 0)scale(0.996264)" xlink:href="#CMR17-46"/>
     <use transform="translate(70.561536 0)scale(0.996264)" xlink:href="#CMR17-53"/>
    </g>
   </g>
   <g id="text_17">
    <!-- 100{\footnotesize{\%}} -->
    <g style="fill:#abdb20;" transform="translate(245.992029 152.057926)scale(0.12 -0.12)">
     <use transform="scale(0.996264)" xlink:href="#CMR17-49"/>
     <use transform="translate(45.690477 0)scale(0.996264)" xlink:href="#CMR17-48"/>
     <use transform="translate(91.380954 0)scale(0.996264)" xlink:href="#CMR17-48"/>
     <use transform="translate(137.071431 0)scale(0.079701)" xlink:href="#CMR8-37"/>
    </g>
   </g>
   <g id="text_18">
    <!-- 1.0 -->
    <g style="fill:#abdb20;" transform="translate(306.535958 150.556822)scale(0.12 -0.12)">
     <use transform="scale(0.996264)" xlink:href="#CMR17-49"/>
     <use transform="translate(45.690477 0)scale(0.996264)" xlink:href="#CMR17-46"/>
     <use transform="translate(70.561536 0)scale(0.996264)" xlink:href="#CMR17-48"/>
    </g>
   </g>
   <g id="text_19">
    <!-- 100{\footnotesize{\%}} -->
    <g style="fill:#d4e115;" transform="translate(245.992029 126.622238)scale(0.12 -0.12)">
     <use transform="scale(0.996264)" xlink:href="#CMR17-49"/>
     <use transform="translate(45.690477 0)scale(0.996264)" xlink:href="#CMR17-48"/>
     <use transform="translate(91.380954 0)scale(0.996264)" xlink:href="#CMR17-48"/>
     <use transform="translate(137.071431 0)scale(0.079701)" xlink:href="#CMR8-37"/>
    </g>
   </g>
   <g id="text_20">
    <!-- 1.5 -->
    <g style="fill:#d4e115;" transform="translate(331.464033 132.86593)scale(0.12 -0.12)">
     <use transform="scale(0.996264)" xlink:href="#CMR17-49"/>
     <use transform="translate(45.690477 0)scale(0.996264)" xlink:href="#CMR17-46"/>
     <use transform="translate(70.561536 0)scale(0.996264)" xlink:href="#CMR17-53"/>
    </g>
   </g>
   <g id="text_21">
    <!-- 100{\footnotesize{\%}} -->
    <g style="fill:#fce51e;" transform="translate(245.992029 93.007175)scale(0.12 -0.12)">
     <use transform="scale(0.996264)" xlink:href="#CMR17-49"/>
     <use transform="translate(45.690477 0)scale(0.996264)" xlink:href="#CMR17-48"/>
     <use transform="translate(91.380954 0)scale(0.996264)" xlink:href="#CMR17-48"/>
     <use transform="translate(137.071431 0)scale(0.079701)" xlink:href="#CMR8-37"/>
    </g>
   </g>
   <g id="text_22">
    <!-- 2.0 -->
    <g style="fill:#fce51e;" transform="translate(360.38152 112.343842)scale(0.12 -0.12)">
     <use transform="scale(0.996264)" xlink:href="#CMR17-50"/>
     <use transform="translate(45.690477 0)scale(0.996264)" xlink:href="#CMR17-46"/>
     <use transform="translate(70.561536 0)scale(0.996264)" xlink:href="#CMR17-48"/>
    </g>
   </g>
  </g>
 </g>
 <defs>
  <clipPath id="pf9bbdac517">
   <rect height="277.2" width="390.6" x="63" y="43.2"/>
  </clipPath>
 </defs>
</svg>
