<?xml version="1.0" encoding="utf-8" standalone="no"?>
<!DOCTYPE svg PUBLIC "-//W3C//DTD SVG 1.1//EN"
  "http://www.w3.org/Graphics/SVG/1.1/DTD/svg11.dtd">
<!-- Created with matplotlib (https://matplotlib.org/) -->
<svg height="432pt" version="1.1" viewBox="0 0 504 432" width="504pt" xmlns="http://www.w3.org/2000/svg" xmlns:xlink="http://www.w3.org/1999/xlink">
 <defs>
  <style type="text/css">
*{stroke-linecap:butt;stroke-linejoin:round;}
  </style>
 </defs>
 <g id="figure_1">
  <g id="patch_1">
   <path d="M 0 432 
L 504 432 
L 504 0 
L 0 0 
z
" style="fill:#ffffff;"/>
  </g>
  <g id="axes_1">
   <g id="patch_2">
    <path d="M 91.98 384.48 
L 424.62 384.48 
L 424.62 51.84 
L 91.98 51.84 
z
" style="fill:#ffffff;"/>
   </g>
   <g id="matplotlib.axis_1">
    <g id="xtick_1">
     <g id="line2d_1">
      <defs>
       <path d="M 0 0 
L 0 3.5 
" id="mea6a853552" style="stroke:#000000;stroke-width:0.8;"/>
      </defs>
      <g>
       <use style="stroke:#000000;stroke-width:0.8;" x="91.98" xlink:href="#mea6a853552" y="384.48"/>
      </g>
     </g>
     <g id="text_1">
      <!-- $-\pi$ -->
      <defs>
       <path d="M 65.90625 23 
C 67.59375 23 69.40625 23 69.40625 25 
C 69.40625 27 67.59375 27 65.90625 27 
L 11.796875 27 
C 10.09375 27 8.296875 27 8.296875 25 
C 8.296875 23 10.09375 23 11.796875 23 
z
" id="CMSY10-0"/>
       <path d="M 25.90625 37.59375 
L 37.203125 37.59375 
C 34.5 26.421875 32.796875 19.140625 32.796875 11.171875 
C 32.796875 9.765625 32.796875 -1 36.90625 -1 
C 39 -1 40.796875 0.890625 40.796875 2.59375 
C 40.796875 3.09375 40.796875 3.28125 40.09375 4.78125 
C 37.40625 11.65625 37.40625 20.234375 37.40625 20.9375 
C 37.40625 21.53125 37.40625 28.625 39.5 37.59375 
L 50.703125 37.59375 
C 52 37.59375 55.296875 37.59375 55.296875 40.796875 
C 55.296875 43 53.40625 43 51.59375 43 
L 18.703125 43 
C 16.40625 43 13 43 8.40625 38.09375 
C 5.796875 35.203125 2.59375 29.921875 2.59375 29.3125 
C 2.59375 28.71875 3.09375 28.515625 3.703125 28.515625 
C 4.40625 28.515625 4.5 28.8125 5 29.421875 
C 10.203125 37.59375 15.40625 37.59375 17.90625 37.59375 
L 23.59375 37.59375 
C 21.40625 30.109375 18.90625 21.4375 10.703125 3.984375 
C 9.90625 2.390625 9.90625 2.1875 9.90625 1.59375 
C 9.90625 -0.5 11.703125 -1 12.59375 -1 
C 15.5 -1 16.296875 1.59375 17.5 5.78125 
C 19.09375 10.859375 19.09375 11.0625 20.09375 15.0625 
z
" id="CMMI12-25"/>
      </defs>
      <g transform="translate(82.018242 401.857725)scale(0.15 -0.15)">
       <use transform="scale(0.996264)" xlink:href="#CMSY10-0"/>
       <use transform="translate(77.487468 0)scale(0.996264)" xlink:href="#CMMI12-25"/>
      </g>
     </g>
    </g>
    <g id="xtick_2">
     <g id="line2d_2">
      <g>
       <use style="stroke:#000000;stroke-width:0.8;" x="171.8136" xlink:href="#mea6a853552" y="384.48"/>
      </g>
     </g>
     <g id="text_2">
      <!-- $-\pi/2$ -->
      <defs>
       <path d="M 42.90625 71.296875 
C 42.90625 71.390625 43.5 72.890625 43.5 73.09375 
C 43.5 74.296875 42.5 75 41.703125 75 
C 41.203125 75 40.296875 75 39.5 72.796875 
L 6 -21.3125 
C 6 -21.40625 5.40625 -22.90625 5.40625 -23.109375 
C 5.40625 -24.3125 6.40625 -25 7.203125 -25 
C 7.796875 -25 8.703125 -24.90625 9.40625 -22.8125 
z
" id="CMMI12-61"/>
       <path d="M 41.703125 15.46875 
L 39.90625 15.46875 
C 38.90625 8.390625 38.09375 7.1875 37.703125 6.59375 
C 37.203125 5.796875 30 5.796875 28.59375 5.796875 
L 9.40625 5.796875 
C 13 9.6875 20 16.765625 28.5 24.9375 
C 34.59375 30.71875 41.703125 37.5 41.703125 47.390625 
C 41.703125 59.1875 32.296875 66 21.796875 66 
C 10.796875 66 4.09375 56.296875 4.09375 47.296875 
C 4.09375 43.390625 7 42.890625 8.203125 42.890625 
C 9.203125 42.890625 12.203125 43.484375 12.203125 46.984375 
C 12.203125 50.09375 9.59375 51 8.203125 51 
C 7.59375 51 7 50.890625 6.59375 50.6875 
C 8.5 59.1875 14.296875 63.390625 20.40625 63.390625 
C 29.09375 63.390625 34.796875 56.5 34.796875 47.390625 
C 34.796875 38.703125 29.703125 31.21875 24 24.734375 
L 4.09375 2.296875 
L 4.09375 0 
L 39.296875 0 
z
" id="CMR17-50"/>
      </defs>
      <g transform="translate(154.267513 402.68797)scale(0.15 -0.15)">
       <use transform="scale(0.996264)" xlink:href="#CMSY10-0"/>
       <use transform="translate(77.487468 0)scale(0.996264)" xlink:href="#CMMI12-25"/>
       <use transform="translate(136.398068 0)scale(0.996264)" xlink:href="#CMMI12-61"/>
       <use transform="translate(185.172987 0)scale(0.996264)" xlink:href="#CMR17-50"/>
      </g>
     </g>
    </g>
    <g id="xtick_3">
     <g id="line2d_3">
      <g>
       <use style="stroke:#000000;stroke-width:0.8;" x="254.9736" xlink:href="#mea6a853552" y="384.48"/>
      </g>
     </g>
     <g id="text_3">
      <!-- 0 -->
      <defs>
       <path d="M 42 31.84375 
C 42 37.96875 41.90625 48.421875 37.703125 56.453125 
C 34 63.484375 28.09375 66 22.90625 66 
C 18.09375 66 12 63.78125 8.203125 56.5625 
C 4.203125 49.015625 3.796875 39.671875 3.796875 31.84375 
C 3.796875 26.109375 3.90625 17.375 7 9.734375 
C 11.296875 -0.609375 19 -2 22.90625 -2 
C 27.5 -2 34.5 -0.109375 38.59375 9.4375 
C 41.59375 16.375 42 24.5 42 31.84375 
z
M 22.90625 -0.40625 
C 16.5 -0.40625 12.703125 5.125 11.296875 12.75 
C 10.203125 18.6875 10.203125 27.328125 10.203125 32.953125 
C 10.203125 40.6875 10.203125 47.109375 11.5 53.234375 
C 13.40625 61.78125 19 64.390625 22.90625 64.390625 
C 27 64.390625 32.296875 61.671875 34.203125 53.4375 
C 35.5 47.71875 35.59375 40.984375 35.59375 32.953125 
C 35.59375 26.421875 35.59375 18.375 34.40625 12.453125 
C 32.296875 1.5 26.40625 -0.40625 22.90625 -0.40625 
z
" id="CMR17-48"/>
      </defs>
      <g transform="translate(251.315481 401.857725)scale(0.15 -0.15)">
       <use transform="scale(0.996264)" xlink:href="#CMR17-48"/>
      </g>
     </g>
    </g>
    <g id="xtick_4">
     <g id="line2d_4">
      <g>
       <use style="stroke:#000000;stroke-width:0.8;" x="338.1336" xlink:href="#mea6a853552" y="384.48"/>
      </g>
     </g>
     <g id="text_4">
      <!-- $\pi/2$ -->
      <g transform="translate(326.399071 402.68797)scale(0.15 -0.15)">
       <use transform="scale(0.996264)" xlink:href="#CMMI12-25"/>
       <use transform="translate(58.910601 0)scale(0.996264)" xlink:href="#CMMI12-61"/>
       <use transform="translate(107.68552 0)scale(0.996264)" xlink:href="#CMR17-50"/>
      </g>
     </g>
    </g>
    <g id="xtick_5">
     <g id="line2d_5">
      <g>
       <use style="stroke:#000000;stroke-width:0.8;" x="421.2936" xlink:href="#mea6a853552" y="384.48"/>
      </g>
     </g>
     <g id="text_5">
      <!-- $\pi$ -->
      <g transform="translate(417.143399 401.857725)scale(0.15 -0.15)">
       <use transform="scale(0.996264)" xlink:href="#CMMI12-25"/>
      </g>
     </g>
    </g>
    <g id="text_6">
     <!-- Phi ($\phi$) -->
     <defs>
      <path d="M 19.796875 32 
L 35.796875 32 
C 48.703125 32 58.09375 40.359375 58.09375 49.796875 
C 58.09375 59.234375 48.90625 68 35.796875 68 
L 5.203125 68 
L 5.203125 65.390625 
C 12.09375 65.390625 13.203125 65.390625 13.203125 60.921875 
L 13.203125 7.078125 
C 13.203125 2.59375 12.09375 2.59375 5.203125 2.59375 
L 5.203125 0 
C 8.09375 0.1875 13.40625 0.1875 16.5 0.1875 
C 19.59375 0.1875 24.90625 0.1875 27.796875 0 
L 27.796875 2.59375 
C 20.90625 2.59375 19.796875 2.59375 19.796875 7.078125 
z
M 19.59375 34.09375 
L 19.59375 61.515625 
C 19.59375 64.890625 19.796875 65.390625 23.796875 65.390625 
L 33.90625 65.390625 
C 46.796875 65.390625 50.5 58.046875 50.5 49.796875 
C 50.5 40.75 46.09375 34.09375 33.90625 34.09375 
z
" id="CMR17-80"/>
      <path d="M 41.5 30.53125 
C 41.5 35.65625 40.5 44 28.703125 44 
C 20.5 44 16.5 37.375 15.296875 34.046875 
L 15.203125 34.046875 
L 15.203125 69 
L 3.296875 67.890625 
L 3.296875 65.296875 
C 9.203125 65.296875 10.09375 64.703125 10.09375 60.046875 
L 10.09375 6.921875 
C 10.09375 3.09375 9.703125 2.59375 3.296875 2.59375 
L 3.296875 0 
C 5.703125 0.1875 10.09375 0.1875 12.703125 0.1875 
C 15.296875 0.1875 19.796875 0.1875 22.203125 0 
L 22.203125 2.59375 
C 15.796875 2.59375 15.40625 3 15.40625 6.921875 
L 15.40625 26.21875 
C 15.40625 35.453125 21 42.390625 28 42.390625 
C 35.40625 42.390625 36.203125 35.765625 36.203125 30.9375 
L 36.203125 6.921875 
C 36.203125 3.09375 35.796875 2.59375 29.40625 2.59375 
L 29.40625 0 
C 31.796875 0.1875 36.203125 0.1875 38.796875 0.1875 
C 41.40625 0.1875 45.90625 0.1875 48.296875 0 
L 48.296875 2.59375 
C 41.90625 2.59375 41.5 3 41.5 6.921875 
z
" id="CMR17-104"/>
      <path d="M 15.5 61.890625 
C 15.5 64.09375 13.703125 66 11.40625 66 
C 9.203125 66 7.296875 64.1875 7.296875 61.890625 
C 7.296875 59.6875 9.09375 57.796875 11.40625 57.796875 
C 13.59375 57.796875 15.5 59.59375 15.5 61.890625 
z
M 3.796875 42.890625 
L 3.796875 40.296875 
C 9.40625 40.296875 10.203125 39.6875 10.203125 34.859375 
L 10.203125 6.921875 
C 10.203125 3.09375 9.796875 2.59375 3.40625 2.59375 
L 3.40625 0 
C 5.796875 0.1875 10.09375 0.1875 12.59375 0.1875 
C 15 0.1875 19.09375 0.1875 21.40625 0 
L 21.40625 2.59375 
C 15.5 2.59375 15.296875 3.203125 15.296875 6.8125 
L 15.296875 44 
z
" id="CMR17-105"/>
      <path d="M 30.59375 -24.40625 
C 30.59375 -24.3125 30.59375 -24.109375 30.296875 -23.8125 
C 25.703125 -19.109375 13.40625 -6.296875 13.40625 24.9375 
C 13.40625 56.171875 25.5 68.875 30.40625 73.890625 
C 30.40625 73.984375 30.59375 74.1875 30.59375 74.484375 
C 30.59375 74.796875 30.296875 75 29.90625 75 
C 28.796875 75 20.296875 67.578125 15.40625 56.5625 
C 10.40625 45.453125 9 34.65625 9 25.046875 
C 9 17.828125 9.703125 5.625 15.703125 -7.296875 
C 20.5 -17.703125 28.703125 -25 29.90625 -25 
C 30.40625 -25 30.59375 -24.8125 30.59375 -24.40625 
z
" id="CMR17-40"/>
      <path d="M 43 68.09375 
C 43 69 42.296875 69 42 69 
C 41.09375 69 41 68.796875 40.59375 67.09375 
L 35.203125 45.6875 
C 34.90625 44.390625 34.796875 44.296875 34.703125 44.1875 
C 34.59375 44 33.90625 43.890625 33.703125 43.890625 
C 17.296875 42.5 4.703125 29.109375 4.703125 16.734375 
C 4.703125 6.046875 13 -0.5 23.40625 -1.109375 
C 22.59375 -4.15625 21.90625 -7.296875 21.09375 -10.34375 
C 19.703125 -15.546875 18.90625 -18.8125 18.90625 -19.203125 
C 18.90625 -19.40625 18.90625 -20 19.90625 -20 
C 20.203125 -20 20.59375 -20 20.796875 -19.609375 
C 21 -19.40625 21.59375 -17.015625 22 -15.75 
L 25.703125 -1.109375 
C 42.796875 -0.203125 55.796875 13.671875 55.796875 26.140625 
C 55.796875 36.140625 48.203125 43.296875 37.09375 44 
z
M 36.5 42 
C 43.09375 41.59375 49.703125 37.9375 49.703125 28.21875 
C 49.703125 17.03125 41.796875 2.1875 26.203125 1 
z
M 23.90625 0.890625 
C 19 1.1875 10.796875 3.765625 10.796875 14.65625 
C 10.796875 27.140625 19.90625 41 34.296875 41.890625 
z
" id="CMMI12-30"/>
      <path d="M 26.296875 24.9375 
C 26.296875 32.140625 25.59375 44.359375 19.59375 57.265625 
C 14.796875 67.6875 6.59375 75 5.40625 75 
C 5.09375 75 4.703125 74.890625 4.703125 74.390625 
C 4.703125 74.1875 4.796875 74.09375 4.90625 73.890625 
C 9.703125 68.875 21.90625 56.171875 21.90625 25.046875 
C 21.90625 -6.1875 9.796875 -18.90625 4.90625 -23.90625 
C 4.796875 -24.109375 4.703125 -24.203125 4.703125 -24.40625 
C 4.703125 -24.90625 5.09375 -25 5.40625 -25 
C 6.5 -25 15 -17.609375 19.90625 -6.59375 
C 24.90625 4.515625 26.296875 15.328125 26.296875 24.9375 
z
" id="CMR17-41"/>
     </defs>
     <g transform="translate(234.766105 421.63193)scale(0.15 -0.15)">
      <use transform="scale(0.996264)" xlink:href="#CMR17-80"/>
      <use transform="translate(62.586301 0)scale(0.996264)" xlink:href="#CMR17-104"/>
      <use transform="translate(113.48167 0)scale(0.996264)" xlink:href="#CMR17-105"/>
      <use transform="translate(168.428695 0)scale(0.996264)" xlink:href="#CMR17-40"/>
      <use transform="translate(203.709463 0)scale(0.996264)" xlink:href="#CMMI12-30"/>
      <use transform="translate(261.443643 0)scale(0.996264)" xlink:href="#CMR17-41"/>
     </g>
    </g>
   </g>
   <g id="matplotlib.axis_2">
    <g id="ytick_1">
     <g id="line2d_6">
      <defs>
       <path d="M 0 0 
L -3.5 0 
" id="ma6baa7899a" style="stroke:#000000;stroke-width:0.8;"/>
      </defs>
      <g>
       <use style="stroke:#000000;stroke-width:0.8;" x="91.98" xlink:href="#ma6baa7899a" y="384.48"/>
      </g>
     </g>
     <g id="text_7">
      <!-- $\pi$ -->
      <g transform="translate(76.679599 389.668862)scale(0.15 -0.15)">
       <use transform="scale(0.996264)" xlink:href="#CMMI12-25"/>
      </g>
     </g>
    </g>
    <g id="ytick_2">
     <g id="line2d_7">
      <g>
       <use style="stroke:#000000;stroke-width:0.8;" x="91.98" xlink:href="#ma6baa7899a" y="304.6464"/>
      </g>
     </g>
     <g id="text_8">
      <!-- $\pi/2$ -->
      <g transform="translate(61.510941 310.250385)scale(0.15 -0.15)">
       <use transform="scale(0.996264)" xlink:href="#CMMI12-25"/>
       <use transform="translate(58.910601 0)scale(0.996264)" xlink:href="#CMMI12-61"/>
       <use transform="translate(107.68552 0)scale(0.996264)" xlink:href="#CMR17-50"/>
      </g>
     </g>
    </g>
    <g id="ytick_3">
     <g id="line2d_8">
      <g>
       <use style="stroke:#000000;stroke-width:0.8;" x="91.98" xlink:href="#ma6baa7899a" y="221.4864"/>
      </g>
     </g>
     <g id="text_9">
      <!-- 0 -->
      <g transform="translate(77.663762 226.675262)scale(0.15 -0.15)">
       <use transform="scale(0.996264)" xlink:href="#CMR17-48"/>
      </g>
     </g>
    </g>
    <g id="ytick_4">
     <g id="line2d_9">
      <g>
       <use style="stroke:#000000;stroke-width:0.8;" x="91.98" xlink:href="#ma6baa7899a" y="138.3264"/>
      </g>
     </g>
     <g id="text_10">
      <!-- $-\pi/2$ -->
      <g transform="translate(49.887826 143.930385)scale(0.15 -0.15)">
       <use transform="scale(0.996264)" xlink:href="#CMSY10-0"/>
       <use transform="translate(77.487468 0)scale(0.996264)" xlink:href="#CMMI12-25"/>
       <use transform="translate(136.398068 0)scale(0.996264)" xlink:href="#CMMI12-61"/>
       <use transform="translate(185.172987 0)scale(0.996264)" xlink:href="#CMR17-50"/>
      </g>
     </g>
    </g>
    <g id="ytick_5">
     <g id="line2d_10">
      <g>
       <use style="stroke:#000000;stroke-width:0.8;" x="91.98" xlink:href="#ma6baa7899a" y="55.1664"/>
      </g>
     </g>
     <g id="text_11">
      <!-- $-\pi$ -->
      <g transform="translate(65.056483 60.355262)scale(0.15 -0.15)">
       <use transform="scale(0.996264)" xlink:href="#CMSY10-0"/>
       <use transform="translate(77.487468 0)scale(0.996264)" xlink:href="#CMMI12-25"/>
      </g>
     </g>
    </g>
    <g id="text_12">
     <!-- Psi ($\psi$) -->
     <defs>
      <path d="M 30.90625 42 
C 30.90625 43.796875 30.796875 43.890625 30.203125 43.890625 
C 29.796875 43.890625 29.703125 43.796875 28.5 42.296875 
C 28.203125 41.890625 27.296875 40.890625 27 40.5 
C 23.796875 43.890625 19.296875 44 17.59375 44 
C 6.5 44 2.5 38.1875 2.5 32.390625 
C 2.5 23.390625 12.703125 21.296875 15.59375 20.6875 
C 21.90625 19.390625 24.09375 19 26.203125 17.1875 
C 27.5 16 29.703125 13.796875 29.703125 10.1875 
C 29.703125 6 27.296875 0.59375 18.09375 0.59375 
C 9.40625 0.59375 6.296875 7.1875 4.5 16 
C 4.203125 17.390625 4.203125 17.5 3.40625 17.5 
C 2.59375 17.5 2.5 17.390625 2.5 15.390625 
L 2.5 1 
C 2.5 -0.8125 2.59375 -0.90625 3.203125 -0.90625 
C 3.703125 -0.90625 3.796875 -0.8125 4.296875 0 
C 4.90625 0.890625 6.40625 3.296875 7 4.296875 
C 9 1.59375 12.5 -1 18.09375 -1 
C 28 -1 33.296875 4.390625 33.296875 12.1875 
C 33.296875 17.296875 30.59375 20 29.296875 21.1875 
C 26.296875 24.296875 22.796875 25 18.59375 25.796875 
C 13.09375 27 6.09375 28.390625 6.09375 34.5 
C 6.09375 37.09375 7.5 42.59375 17.59375 42.59375 
C 28.296875 42.59375 28.90625 32.59375 29.09375 29.390625 
C 29.203125 28.890625 29.703125 28.796875 30 28.796875 
C 30.90625 28.796875 30.90625 29.09375 30.90625 30.796875 
z
" id="CMR17-115"/>
      <path d="M 47 66.59375 
C 47 66.6875 47.40625 67.984375 47.40625 68.09375 
C 47.40625 69 46.59375 69 46.296875 69 
C 45.40625 69 45.296875 68.484375 44.90625 66.984375 
L 28.40625 1.1875 
C 20.09375 2.1875 17 6.375 17 12.359375 
C 17 14.5625 17 16.859375 21.703125 29.21875 
C 23 32.8125 23.5 34.109375 23.5 35.90625 
C 23.5 40.40625 20.296875 44 15.59375 44 
C 6.40625 44 2.703125 29.53125 2.703125 28.734375 
C 2.703125 28.328125 3.09375 27.828125 3.796875 27.828125 
C 4.703125 27.828125 4.796875 28.234375 5.203125 29.625 
C 7.59375 38.296875 11.59375 41.984375 15.296875 41.984375 
C 16.203125 41.984375 17.90625 41.890625 17.90625 38.703125 
C 17.90625 38.296875 17.90625 36.109375 16.203125 31.71875 
C 10.796875 17.546875 10.796875 15.359375 10.796875 13.0625 
C 10.796875 3.484375 18.796875 -0.203125 27.796875 -0.90625 
C 27 -3.9375 26.296875 -7.0625 25.5 -10.09375 
C 23.90625 -15.953125 23.203125 -18.703125 23.203125 -19.109375 
C 23.203125 -20 24 -20 24.296875 -20 
C 24.5 -20 24.90625 -20 25.09375 -19.609375 
C 25.5 -19.203125 29.59375 -2.765625 30 -1 
C 33.703125 -1 41.59375 -1 50.59375 8.28125 
C 53.90625 11.859375 56.90625 16.453125 58.59375 20.75 
C 59.59375 23.34375 62 32.21875 62 37.3125 
C 62 43.296875 59 44 58 44 
C 55.59375 44 53.40625 41.59375 53.40625 39.59375 
C 53.40625 38.40625 54.09375 37.703125 54.5 37.3125 
C 55.40625 36.40625 58.09375 33.71875 58.09375 28.53125 
C 58.09375 24.9375 56.09375 17.546875 49.703125 10.375 
C 41.296875 1 33.59375 1 30.59375 1 
z
" id="CMMI12-32"/>
     </defs>
     <g transform="translate(42.151835 241.209604)rotate(-90)scale(0.15 -0.15)">
      <use transform="scale(0.996264)" xlink:href="#CMR17-80"/>
      <use transform="translate(62.586301 0)scale(0.996264)" xlink:href="#CMR17-115"/>
      <use transform="translate(98.387638 0)scale(0.996264)" xlink:href="#CMR17-105"/>
      <use transform="translate(153.334663 0)scale(0.996264)" xlink:href="#CMR17-40"/>
      <use transform="translate(188.615431 0)scale(0.996264)" xlink:href="#CMMI12-32"/>
      <use transform="translate(255.60891 0)scale(0.996264)" xlink:href="#CMR17-41"/>
     </g>
    </g>
   </g>
   <g id="line2d_11">
    <path clip-path="url(#p6555014953)" d="M 245.033299 217.864033 
L 245.245064 215.792449 
L 245.668595 214.112177 
L 246.30389 212.510918 
L 247.150951 210.989938 
L 248.156836 209.629956 
L 249.374486 208.363517 
L 250.698018 207.302025 
L 252.180375 206.398464 
L 253.768614 205.695278 
L 255.409794 205.211769 
L 257.103916 204.944544 
L 258.798037 204.899411 
L 260.492159 205.074167 
L 262.133339 205.461282 
L 263.721578 206.058657 
L 265.256876 206.876091 
L 266.63335 207.854305 
L 267.903941 209.027782 
L 269.015708 210.359428 
L 269.91571 211.769455 
L 270.656888 213.344496 
L 271.186301 215.007501 
L 271.451008 216.395739 
L 271.556891 217.572553 
L 271.51376 219.374497 
L 271.196112 221.272501 
L 270.666699 222.950448 
L 269.925521 224.532781 
L 268.972577 226.019295 
L 267.86081 227.337342 
L 266.590219 228.5005 
L 265.160804 229.50286 
L 263.625506 230.304229 
L 262.037267 230.887575 
L 260.343145 231.270166 
L 258.649024 231.425398 
L 256.954902 231.360973 
L 255.26078 231.073742 
L 253.6196 230.569096 
L 252.084302 229.870746 
L 250.601946 228.949836 
L 249.278414 227.868005 
L 248.113705 226.638588 
L 247.10782 225.262846 
L 246.260759 223.717195 
L 245.625464 222.071872 
L 245.254875 220.580507 
L 245.043109 218.747447 
L 245.033299 217.864033 
L 245.033299 217.864033 
" style="fill:none;stroke:#002255;stroke-dasharray:3.7,1.6;stroke-dashoffset:0;"/>
   </g>
   <g id="line2d_12">
    <path clip-path="url(#p6555014953)" d="M 231.586209 216.716921 
L 231.850915 214.213072 
L 232.327387 211.868179 
L 233.015624 209.580002 
L 233.915626 207.346056 
L 235.027393 205.175765 
L 236.350926 203.082629 
L 237.886224 201.082801 
L 239.580345 199.247208 
L 241.433291 197.570585 
L 243.392119 196.093651 
L 245.509771 194.777757 
L 247.680364 193.687883 
L 249.95684 192.793742 
L 252.286257 192.11903 
L 254.668616 191.663852 
L 257.050974 191.436006 
L 259.433333 191.430625 
L 261.815691 191.647594 
L 264.19805 192.091543 
L 266.527467 192.754656 
L 268.803943 193.63652 
L 270.974536 194.713371 
L 273.092188 196.014672 
L 275.051016 197.475539 
L 276.903962 199.133314 
L 278.598083 200.946433 
L 280.133381 202.918044 
L 281.456914 204.974979 
L 282.568681 207.095957 
L 283.521624 209.403257 
L 284.209861 211.623819 
L 284.686333 213.82859 
L 284.951039 215.85958 
L 285.003981 216.552316 
L 284.907909 220.897559 
L 284.537319 223.287764 
L 283.954965 225.602367 
L 283.160846 227.864209 
L 282.154961 230.067821 
L 280.937311 232.2014 
L 279.507896 234.250054 
L 277.919657 236.139001 
L 276.172594 237.877019 
L 274.266707 239.462005 
L 272.254938 240.851739 
L 270.137286 242.050954 
L 267.913751 243.05709 
L 265.637275 243.846335 
L 263.307858 244.421409 
L 260.9255 244.779684 
L 258.543141 244.913289 
L 256.160783 244.825043 
L 253.778424 244.513091 
L 251.449007 243.985291 
L 249.172531 243.245389 
L 246.948996 242.292068 
L 244.778403 241.117816 
L 242.713692 239.745434 
L 240.807805 238.216933 
L 239.007801 236.488915 
L 237.366621 234.601853 
L 235.937206 232.626918 
L 234.666615 230.491207 
L 233.607789 228.273038 
L 232.760728 225.976862 
L 232.125432 223.587289 
L 231.754843 221.430026 
L 231.596019 219.767684 
L 231.586209 216.716921 
L 231.586209 216.716921 
" style="fill:none;stroke:#0044aa;stroke-dasharray:3.7,1.6;stroke-dashoffset:0;"/>
   </g>
   <g id="line2d_13">
    <path clip-path="url(#p6555014953)" d="M 202.892024 216.44645 
L 203.156731 212.945874 
L 203.633202 209.748841 
L 204.321439 206.607794 
L 205.274383 203.333201 
L 206.439091 200.141637 
L 207.815565 197.008234 
L 209.456745 193.82992 
L 211.309691 190.726562 
L 213.374402 187.696165 
L 215.650877 184.743105 
L 218.139119 181.876478 
L 220.839125 179.109427 
L 223.645014 176.549852 
L 226.609727 174.146649 
L 229.680322 171.946771 
L 232.803859 169.983142 
L 235.980337 168.249368 
L 239.156815 166.766252 
L 242.386234 165.504612 
L 245.615653 164.483516 
L 248.845073 163.69758 
L 252.074492 163.143157 
L 255.25097 162.821412 
L 258.427448 162.720177 
L 261.603926 162.839082 
L 264.780404 163.178563 
L 267.956882 163.739913 
L 271.13336 164.525423 
L 274.309838 165.538642 
L 277.486316 166.784761 
L 280.662794 168.271203 
L 283.786331 169.977388 
L 286.856926 171.904678 
L 289.87458 174.058625 
L 292.839293 176.450529 
L 295.645182 178.997881 
L 298.345188 181.751067 
L 300.83343 184.60211 
L 303.162847 187.609794 
L 305.280499 190.711206 
L 307.133444 193.812296 
L 308.774625 196.987678 
L 310.151098 200.117253 
L 311.315807 203.303336 
L 312.26875 206.569254 
L 312.956987 209.695767 
L 313.433459 212.860453 
L 313.698166 216.201516 
L 313.602093 221.715398 
L 313.231504 224.983633 
L 312.64915 228.14604 
L 311.802089 231.453228 
L 310.743263 234.663164 
L 309.472672 237.81176 
L 307.937374 241.013006 
L 306.190311 244.139316 
L 304.231483 247.195488 
L 302.007949 250.247488 
L 299.572649 253.204073 
L 296.978525 256.002716 
L 294.225577 258.647804 
L 291.313806 261.136241 
L 288.296152 263.421536 
L 285.225556 265.471143 
L 282.10202 267.293511 
L 278.925542 268.892071 
L 275.749064 270.245998 
L 272.519644 271.380652 
L 269.290225 272.277836 
L 266.060806 272.941959 
L 262.884328 273.370665 
L 259.70785 273.578384 
L 256.531372 273.565884 
L 253.354894 273.333121 
L 250.178416 272.879228 
L 247.001938 272.20242 
L 243.82546 271.299796 
L 240.648982 270.167018 
L 237.472504 268.797829 
L 234.296026 267.183344 
L 231.172489 265.344408 
L 228.101893 263.277267 
L 225.137181 261.015937 
L 222.27835 258.560532 
L 219.525403 255.904705 
L 216.931279 253.093945 
L 214.495979 250.123226 
L 212.272445 247.054515 
L 210.313617 243.978473 
L 208.566554 240.827064 
L 207.031256 237.592491 
L 205.760665 234.398981 
L 204.701839 231.121424 
L 203.907719 227.947243 
L 203.325365 224.688225 
L 203.007717 221.839638 
L 202.901834 220.118484 
L 202.892024 216.44645 
L 202.892024 216.44645 
" style="fill:none;stroke:#0055d4;stroke-dasharray:3.7,1.6;stroke-dashoffset:0;"/>
   </g>
   <g id="line2d_14">
    <path clip-path="url(#p6555014953)" d="M 168.53312 216.44059 
L 168.797827 212.609977 
L 169.274298 209.15529 
L 170.015477 205.522704 
L 170.96842 201.989624 
L 172.18607 198.344592 
L 173.668426 194.623525 
L 175.415489 190.841924 
L 177.4802 186.912269 
L 179.862558 182.868139 
L 182.562565 178.731798 
L 185.580219 174.520562 
L 188.915521 170.250617 
L 192.568471 165.939618 
L 196.486127 161.664331 
L 200.615548 157.490333 
L 204.850852 153.523626 
L 209.192039 149.762005 
L 213.533225 146.29378 
L 217.821471 143.149938 
L 222.056775 140.320196 
L 226.186196 137.828664 
L 230.156794 135.688212 
L 234.021509 133.852333 
L 237.780341 132.308278 
L 241.486232 131.026205 
L 245.08624 130.015462 
L 248.633307 129.25113 
L 252.127433 128.7271 
L 255.568618 128.435977 
L 259.009802 128.369777 
L 262.450987 128.528886 
L 265.892171 128.912385 
L 269.333356 129.518108 
L 272.827482 130.357136 
L 276.42749 131.452974 
L 280.08044 132.799182 
L 283.839272 134.423951 
L 287.703987 136.340314 
L 291.674585 138.561004 
L 295.751065 141.099122 
L 299.933427 143.969127 
L 304.168731 147.14682 
L 308.456977 150.643698 
L 312.745222 154.429435 
L 316.980526 158.468274 
L 321.057006 162.6638 
L 324.921721 166.959042 
L 328.52173 171.289644 
L 331.80409 175.579673 
L 334.768803 179.813323 
L 337.415868 183.976379 
L 339.745285 188.053747 
L 341.757055 192.025727 
L 343.451176 195.861536 
L 344.82765 199.506719 
L 345.939417 203.043219 
L 346.83942 206.644356 
L 347.474715 210.076831 
L 347.898246 213.611492 
L 348.057069 216.163185 
L 348.013939 221.079004 
L 347.696291 224.637576 
L 347.166878 228.053959 
L 346.372758 231.660051 
L 345.366873 235.186179 
L 344.096282 238.825663 
L 342.560985 242.543708 
L 340.76098 246.324518 
L 338.643328 250.25279 
L 336.208029 254.29574 
L 333.455081 258.431047 
L 330.384486 262.640917 
L 326.996242 266.908426 
L 323.290351 271.21497 
L 319.319754 275.483439 
L 315.190332 279.596738 
L 310.902087 283.553939 
L 306.5609 287.257465 
L 302.219714 290.669376 
L 297.931468 293.757983 
L 293.749106 296.499631 
L 289.672626 298.910097 
L 285.702028 301.003029 
L 281.837313 302.791213 
L 278.078481 304.28744 
L 274.425531 305.505089 
L 270.825523 306.470961 
L 267.331397 307.18115 
L 263.890212 307.657922 
L 260.449028 307.911064 
L 257.007843 307.939126 
L 253.566659 307.741943 
L 250.125474 307.320652 
L 246.631348 306.666013 
L 243.084281 305.771361 
L 239.484273 304.631245 
L 235.831323 303.241288 
L 232.072491 301.572803 
L 228.207776 299.612842 
L 224.237178 297.348657 
L 220.160698 294.766991 
L 215.978336 291.85305 
L 211.743032 288.631007 
L 207.454786 285.088485 
L 203.166541 281.255115 
L 198.984178 277.218628 
L 194.960639 273.029934 
L 191.148866 268.745553 
L 187.601799 264.429684 
L 184.372379 260.158611 
L 181.460608 255.948287 
L 178.866484 251.813638 
L 176.590008 247.771295 
L 174.63118 243.843806 
L 172.99 240.067062 
L 171.613526 236.348467 
L 170.501759 232.704465 
L 169.654698 229.176953 
L 169.072344 225.889666 
L 168.701754 222.708508 
L 168.542931 220.156815 
L 168.53312 216.44059 
L 168.53312 216.44059 
" style="fill:none;stroke:#0066ff;stroke-dasharray:3.7,1.6;stroke-dashoffset:0;"/>
   </g>
   <g id="line2d_15">
    <path clip-path="url(#p6555014953)" d="M 91.98 218.16 
L 258.321565 51.861565 
L 258.374507 51.914507 
L 424.62 218.16 
L 424.567059 218.212941 
L 258.278435 384.458435 
L 258.225493 384.405493 
L 91.98 218.16 
L 91.98 218.16 
" style="fill:none;stroke:#2a7fff;stroke-dasharray:3.7,1.6;stroke-dashoffset:0;"/>
   </g>
   <g id="patch_3">
    <path d="M 91.98 384.48 
L 91.98 51.84 
" style="fill:none;stroke:#000000;stroke-linecap:square;stroke-linejoin:miter;stroke-width:0.8;"/>
   </g>
   <g id="patch_4">
    <path d="M 424.62 384.48 
L 424.62 51.84 
" style="fill:none;stroke:#000000;stroke-linecap:square;stroke-linejoin:miter;stroke-width:0.8;"/>
   </g>
   <g id="patch_5">
    <path d="M 91.98 384.48 
L 424.62 384.48 
" style="fill:none;stroke:#000000;stroke-linecap:square;stroke-linejoin:miter;stroke-width:0.8;"/>
   </g>
   <g id="patch_6">
    <path d="M 91.98 51.84 
L 424.62 51.84 
" style="fill:none;stroke:#000000;stroke-linecap:square;stroke-linejoin:miter;stroke-width:0.8;"/>
   </g>
   <g id="text_13">
    <!-- 18{\footnotesize{\%}} -->
    <defs>
     <path d="M 26.59375 63.796875 
C 26.59375 65.890625 26.5 66 25.09375 66 
C 21.203125 61.359375 15.296875 59.890625 9.703125 59.6875 
C 9.40625 59.6875 8.90625 59.6875 8.796875 59.5 
C 8.703125 59.296875 8.703125 59.09375 8.703125 57 
C 11.796875 57 17 57.59375 21 59.984375 
L 21 7.296875 
C 21 3.796875 20.796875 2.59375 12.203125 2.59375 
L 9.203125 2.59375 
L 9.203125 0 
C 14 0.09375 19 0.1875 23.796875 0.1875 
C 28.59375 0.1875 33.59375 0.09375 38.40625 0 
L 38.40625 2.59375 
L 35.40625 2.59375 
C 26.796875 2.59375 26.59375 3.6875 26.59375 7.296875 
z
" id="CMR17-49"/>
     <path d="M 27.203125 35.765625 
C 33.5 38.96875 39.90625 43.796875 39.90625 51.53125 
C 39.90625 60.6875 31.09375 66 23 66 
C 13.90625 66 5.90625 59.375 5.90625 50.234375 
C 5.90625 47.71875 6.5 43.390625 10.40625 39.578125 
C 11.40625 38.578125 15.59375 35.5625 18.296875 33.65625 
C 13.796875 31.34375 3.296875 25.8125 3.296875 14.765625 
C 3.296875 4.40625 13.09375 -2 22.796875 -2 
C 33.5 -2 42.5 5.71875 42.5 15.96875 
C 42.5 25.109375 36.40625 29.328125 32.40625 32.046875 
z
M 14.09375 44.609375 
C 13.296875 45.109375 9.296875 48.21875 9.296875 52.9375 
C 9.296875 59.078125 15.59375 63.6875 22.796875 63.6875 
C 30.703125 63.6875 36.5 58.0625 36.5 51.53125 
C 36.5 42.1875 26.09375 36.859375 25.59375 36.859375 
C 25.5 36.859375 25.40625 36.859375 24.59375 37.46875 
z
M 32.5 24 
C 34 22.90625 38.796875 19.578125 38.796875 13.453125 
C 38.796875 6.015625 31.40625 0.390625 23 0.390625 
C 13.90625 0.390625 7 6.921875 7 14.859375 
C 7 22.796875 13.09375 29.4375 20 32.546875 
z
" id="CMR17-56"/>
     <path d="M 72.703125 70.609375 
C 73.59375 71.796875 73.59375 72.390625 73.59375 72.6875 
C 73.59375 73.984375 72.59375 75 71.296875 75 
C 70.203125 75 69.703125 74.296875 69.09375 73.59375 
C 64.703125 68.046875 58.296875 64 49.09375 64 
C 45.296875 64 37.203125 64.875 29.296875 71.5 
C 27.5 73.09375 25.296875 75 21.40625 75 
C 13.296875 75 5.90625 66.5625 5.90625 54.984375 
C 5.90625 43.09375 13.5 34.796875 21.40625 34.796875 
C 29.296875 34.796875 35.296875 43.796875 35.296875 54.890625 
C 35.296875 59.6875 34.203125 63.390625 33.40625 65.375 
C 41 61.1875 48 61.1875 49.203125 61.1875 
C 51.59375 61.1875 57.296875 61.59375 62.203125 64.28125 
L 62.296875 64.1875 
L 15.90625 -1.296875 
C 14.796875 -2.703125 14.796875 -2.90625 14.796875 -3.515625 
C 14.796875 -4.8125 15.796875 -5.8125 17.09375 -5.8125 
C 18 -5.8125 18.59375 -5.40625 19.40625 -4.3125 
z
M 21.59375 37.59375 
C 19.796875 37.59375 12.703125 38.5 12.703125 54.890625 
C 12.703125 71.296875 19.703125 72.1875 21.59375 72.1875 
C 26.796875 72.1875 32.203125 65.28125 32.203125 54.984375 
C 32.203125 44.390625 26.703125 37.59375 21.59375 37.59375 
z
M 82.5 14.4375 
C 82.5 26.046875 76.296875 34.796875 68.59375 34.796875 
C 60.5 34.796875 53.09375 26.234375 53.09375 14.546875 
C 53.09375 2.546875 60.703125 -5.8125 68.59375 -5.8125 
C 76.5 -5.8125 82.5 3.25 82.5 14.4375 
z
M 68.796875 -3 
C 67 -3 59.90625 -2.09375 59.90625 14.4375 
C 59.90625 31.078125 66.90625 32 68.796875 32 
C 74 32 79.40625 24.9375 79.40625 14.546875 
C 79.40625 3.84375 73.90625 -3 68.796875 -3 
z
" id="CMR8-37"/>
    </defs>
    <g style="fill:#002255;" transform="translate(249.292047 220.899726)scale(0.11 -0.11)">
     <use transform="scale(0.996264)" xlink:href="#CMR17-49"/>
     <use transform="translate(45.690477 0)scale(0.996264)" xlink:href="#CMR17-56"/>
     <use transform="translate(91.380954 0)scale(0.079701)" xlink:href="#CMR8-37"/>
    </g>
   </g>
   <g id="text_14">
    <!-- 0.25 -->
    <defs>
     <path d="M 16.59375 4.09375 
C 16.59375 6.59375 14.59375 8.1875 12.5 8.1875 
C 10.5 8.1875 8.40625 6.59375 8.40625 4.09375 
C 8.40625 1.59375 10.40625 0 12.5 0 
C 14.5 0 16.59375 1.59375 16.59375 4.09375 
z
" id="CMR17-46"/>
     <path d="M 11.40625 58.59375 
C 12.40625 58.1875 16.5 56.890625 20.703125 56.890625 
C 30 56.890625 35.09375 61.890625 38 64.6875 
C 38 65.484375 38 66 37.40625 66 
C 37.296875 66 37.09375 66 36.296875 65.59375 
C 32.796875 64.09375 28.703125 63 23.703125 63 
C 20.703125 63 16.203125 63.359375 11.296875 65.484375 
C 10.203125 66 10 66 9.90625 66 
C 9.40625 66 9.296875 65.890625 9.296875 63.90625 
L 9.296875 34.859375 
C 9.296875 33.015625 9.296875 32.5 10.296875 32.5 
C 10.796875 32.5 11 32.703125 11.5 33.421875 
C 14.703125 38.046875 19.09375 40 24.09375 40 
C 27.59375 40 35.09375 37.734375 35.09375 20.203125 
C 35.09375 16.984375 35.09375 11.1875 32.09375 6.59375 
C 29.59375 2.484375 25.703125 0.390625 21.40625 0.390625 
C 14.796875 0.390625 8.09375 4.984375 6.296875 12.6875 
C 6.703125 12.59375 7.5 12.390625 7.90625 12.390625 
C 9.203125 12.390625 11.703125 13.09375 11.703125 16.1875 
C 11.703125 18.890625 9.796875 20 7.90625 20 
C 5.59375 20 4.09375 18.59375 4.09375 15.796875 
C 4.09375 7.09375 11 -2 21.59375 -2 
C 31.90625 -2 41.703125 6.890625 41.703125 19.796875 
C 41.703125 32.09375 33.90625 41.59375 24.203125 41.59375 
C 19.09375 41.59375 14.796875 39.6875 11.40625 36 
z
" id="CMR17-53"/>
    </defs>
    <g style="fill:#002255;" transform="translate(264.667814 214.282846)scale(0.1 -0.1)">
     <use transform="scale(0.996264)" xlink:href="#CMR17-48"/>
     <use transform="translate(45.690477 0)scale(0.996264)" xlink:href="#CMR17-46"/>
     <use transform="translate(70.561536 0)scale(0.996264)" xlink:href="#CMR17-50"/>
     <use transform="translate(116.252013 0)scale(0.996264)" xlink:href="#CMR17-53"/>
    </g>
   </g>
   <g id="text_15">
    <!-- 45{\footnotesize{\%}} -->
    <defs>
     <path d="M 33.59375 64.796875 
C 33.59375 66.890625 33.5 67 31.703125 67 
L 2 19.59375 
L 2 17 
L 27.796875 17 
L 27.796875 7.1875 
C 27.796875 3.59375 27.59375 2.59375 20.59375 2.59375 
L 18.703125 2.59375 
L 18.703125 0 
C 21.90625 0.1875 27.296875 0.1875 30.703125 0.1875 
C 34.09375 0.1875 39.5 0.1875 42.703125 0 
L 42.703125 2.59375 
L 40.796875 2.59375 
C 33.796875 2.59375 33.59375 3.59375 33.59375 7.1875 
L 33.59375 17 
L 43.796875 17 
L 43.796875 19.59375 
L 33.59375 19.59375 
z
M 28.09375 58.171875 
L 28.09375 19.59375 
L 4 19.59375 
z
" id="CMR17-52"/>
    </defs>
    <g style="fill:#0044aa;" transform="translate(247.943026 203.021564)scale(0.14 -0.14)">
     <use transform="scale(0.996264)" xlink:href="#CMR17-52"/>
     <use transform="translate(45.690477 0)scale(0.996264)" xlink:href="#CMR17-53"/>
     <use transform="translate(91.380954 0)scale(0.079701)" xlink:href="#CMR8-37"/>
    </g>
   </g>
   <g id="text_16">
    <!-- 0.5 -->
    <g style="fill:#0044aa;" transform="translate(278.830564 201.11636)scale(0.14 -0.14)">
     <use transform="scale(0.996264)" xlink:href="#CMR17-48"/>
     <use transform="translate(45.690477 0)scale(0.996264)" xlink:href="#CMR17-46"/>
     <use transform="translate(70.561536 0)scale(0.996264)" xlink:href="#CMR17-53"/>
    </g>
   </g>
   <g id="text_17">
    <!-- 75{\footnotesize{\%}} -->
    <defs>
     <path d="M 45.09375 61.796875 
L 45.09375 64 
L 21.59375 64 
C 9.90625 64 9.703125 65.09375 9.296875 67 
L 7.5 67 
L 4.59375 48.5 
L 6.40625 48.5 
C 6.703125 50.40625 7.40625 55.5 8.59375 57.390625 
C 9.203125 58.1875 16.59375 58.1875 18.296875 58.1875 
L 40.296875 58.1875 
L 29.203125 41.71875 
C 21.796875 30.640625 16.703125 15.671875 16.703125 2.59375 
C 16.703125 1.390625 16.703125 -2 20.296875 -2 
C 23.90625 -2 23.90625 1.390625 23.90625 2.6875 
L 23.90625 7.28125 
C 23.90625 23.65625 26.703125 34.4375 31.296875 41.3125 
z
" id="CMR17-55"/>
    </defs>
    <g style="fill:#0055d4;" transform="translate(247.943026 182.369885)scale(0.14 -0.14)">
     <use transform="scale(0.996264)" xlink:href="#CMR17-55"/>
     <use transform="translate(45.690477 0)scale(0.996264)" xlink:href="#CMR17-53"/>
     <use transform="translate(91.380954 0)scale(0.079701)" xlink:href="#CMR8-37"/>
    </g>
   </g>
   <g id="text_18">
    <!-- 1.0 -->
    <g style="fill:#0055d4;" transform="translate(298.369299 181.577625)scale(0.14 -0.14)">
     <use transform="scale(0.996264)" xlink:href="#CMR17-49"/>
     <use transform="translate(45.690477 0)scale(0.996264)" xlink:href="#CMR17-46"/>
     <use transform="translate(70.561536 0)scale(0.996264)" xlink:href="#CMR17-48"/>
    </g>
   </g>
   <g id="text_19">
    <!-- 85{\footnotesize{\%}} -->
    <g style="fill:#0066ff;" transform="translate(247.943026 151.847059)scale(0.14 -0.14)">
     <use transform="scale(0.996264)" xlink:href="#CMR17-56"/>
     <use transform="translate(45.690477 0)scale(0.996264)" xlink:href="#CMR17-53"/>
     <use transform="translate(91.380954 0)scale(0.079701)" xlink:href="#CMR8-37"/>
    </g>
   </g>
   <g id="text_20">
    <!-- 1.5 -->
    <g style="fill:#0066ff;" transform="translate(319.486247 160.460677)scale(0.14 -0.14)">
     <use transform="scale(0.996264)" xlink:href="#CMR17-49"/>
     <use transform="translate(45.690477 0)scale(0.996264)" xlink:href="#CMR17-46"/>
     <use transform="translate(70.561536 0)scale(0.996264)" xlink:href="#CMR17-53"/>
    </g>
   </g>
   <g id="text_21">
    <!-- 92{\footnotesize{\%}} -->
    <defs>
     <path d="M 35.203125 29.234375 
C 35.203125 7 26.09375 0.390625 18.59375 0.390625 
C 16.296875 0.390625 10.703125 0.671875 8.40625 4.390625 
C 11 4 12.90625 5.390625 12.90625 7.890625 
C 12.90625 10.59375 10.703125 11.5 9.296875 11.5 
C 8.40625 11.5 5.703125 11.09375 5.703125 7.6875 
C 5.703125 1.0625 11.59375 -2 18.796875 -2 
C 30.296875 -2 42 10.390625 42 32.65625 
C 42 60.265625 30.796875 66 23.203125 66 
C 13.296875 66 3.796875 57.25 3.796875 43.75 
C 3.796875 31.25 11.90625 22 22.09375 22 
C 30.5 22 34.203125 29.84375 35.203125 33.15625 
z
M 22.296875 23.59375 
C 19.59375 23.59375 15.796875 24.09375 12.703125 30.140625 
C 10.59375 34.078125 10.59375 38.703125 10.59375 43.640625 
C 10.59375 49.59375 10.59375 53.71875 13.40625 58.15625 
C 14.796875 60.265625 17.40625 63.6875 23.203125 63.6875 
C 35 63.6875 35 45.453125 35 41.421875 
C 35 34.265625 31.796875 23.59375 22.296875 23.59375 
z
" id="CMR17-57"/>
    </defs>
    <g style="fill:#2a7fff;" transform="translate(247.943026 111.508984)scale(0.14 -0.14)">
     <use transform="scale(0.996264)" xlink:href="#CMR17-57"/>
     <use transform="translate(45.690477 0)scale(0.996264)" xlink:href="#CMR17-50"/>
     <use transform="translate(91.380954 0)scale(0.079701)" xlink:href="#CMR8-37"/>
    </g>
   </g>
   <g id="text_22">
    <!-- 2.0 -->
    <g style="fill:#2a7fff;" transform="translate(343.869992 136.076932)scale(0.14 -0.14)">
     <use transform="scale(0.996264)" xlink:href="#CMR17-50"/>
     <use transform="translate(45.690477 0)scale(0.996264)" xlink:href="#CMR17-46"/>
     <use transform="translate(70.561536 0)scale(0.996264)" xlink:href="#CMR17-48"/>
    </g>
   </g>
  </g>
 </g>
 <defs>
  <clipPath id="p6555014953">
   <rect height="332.64" width="332.64" x="91.98" y="51.84"/>
  </clipPath>
 </defs>
</svg>
